# xmcd CD database file
#
# Track frame offsets:
#	150
#	52800
#	115616
#	152571
#	174842
#
# Disc length: 3358 seconds
#
# Revision: 1
# Processed by: cddbd v1.5.2PL0 Copyright (c) Steve Scherf et al.
# Submitted via: CDex 1.51
#
DISCID=2a0d1c05
DTITLE=Eric Clapton and Buddy Guy - Live From Ronnie Scotts Oct 6, 1987  Disc 2
DYEAR=1900
DGENRE=Blues
TTITLE0=Hurt So Bad
TTITLE1=Wanna Make Love
TTITLE2=Someday Baby  -  Bonus Tracks "Live" from Dingwalls 1985
TTITLE3=Early In The Morning  -  Bonus Tracks "Live" from Dingwalls 1985
TTITLE4=Rock Me Baby  -  Bonus Tracks "Live" from Dingwalls 1985
EXTD=
EXTT0=
EXTT1=
EXTT2=
EXTT3=
EXTT4=
PLAYORDER=
